<svg width="100%" height="100%" viewBox="0 0 213 318" fill="none" xmlns="http://www.w3.org/2000/svg">
<rect width="213" height="318" fill="#E5CBFF"/>
<path d="M92.2159 197.091V196.239C92.3106 187.195 93.2576 179.998 95.0568 174.648C96.8561 169.297 99.4129 164.965 102.727 161.651C106.042 158.336 110.019 155.282 114.659 152.489C117.453 150.784 119.962 148.772 122.188 146.452C124.413 144.084 126.165 141.362 127.443 138.284C128.769 135.206 129.432 131.797 129.432 128.057C129.432 123.417 128.343 119.392 126.165 115.983C123.987 112.574 121.075 109.946 117.429 108.099C113.783 106.253 109.735 105.33 105.284 105.33C101.402 105.33 97.661 106.134 94.0625 107.744C90.464 109.354 87.4574 111.887 85.0426 115.344C82.6278 118.8 81.2311 123.322 80.8523 128.909H62.9545C63.3333 120.86 65.4167 113.971 69.2045 108.241C73.0398 102.512 78.0824 98.1326 84.3324 95.1023C90.6297 92.072 97.6136 90.5568 105.284 90.5568C113.617 90.5568 120.862 92.214 127.017 95.5284C133.22 98.8428 138.002 103.388 141.364 109.165C144.773 114.941 146.477 121.523 146.477 128.909C146.477 134.117 145.672 138.829 144.062 143.043C142.5 147.257 140.227 151.021 137.244 154.335C134.309 157.65 130.758 160.585 126.591 163.142C122.424 165.746 119.086 168.492 116.577 171.381C114.067 174.222 112.244 177.607 111.108 181.537C109.972 185.467 109.356 190.367 109.261 196.239V197.091H92.2159ZM101.307 239.136C97.803 239.136 94.7964 237.882 92.2869 235.372C89.7775 232.863 88.5227 229.856 88.5227 226.352C88.5227 222.848 89.7775 219.842 92.2869 217.332C94.7964 214.823 97.803 213.568 101.307 213.568C104.811 213.568 107.817 214.823 110.327 217.332C112.836 219.842 114.091 222.848 114.091 226.352C114.091 228.672 113.499 230.803 112.315 232.744C111.179 234.686 109.64 236.248 107.699 237.432C105.805 238.568 103.674 239.136 101.307 239.136Z" fill="white"/>
</svg>
